<?xml version="1.0" encoding="UTF-8"?>
<svg version="1.1" viewBox="120 160 500 500" xmlns="http://www.w3.org/2000/svg">
 <g>
  <path d="m577.27 169.75h-402.54c-3.9258 0-7.1055 3.1797-7.1055 7.1016v38.359c0 3.9258 3.1797 7.1055 7.1055 7.1055h6.7383v272.26h-6.7383c-3.9258 0-7.1055 3.1797-7.1055 7.1016 0 3.9258 3.1797 7.1055 7.1055 7.1055h194.17v13.074c-6.4102 0.37891-12.434 3.1875-16.844 7.8477-4.4141 4.6641-6.8828 10.832-6.9062 17.254v9.9453c0.007812 6.6992 2.6719 13.125 7.4102 17.863 4.7383 4.7422 11.164 7.4062 17.863 7.4141h9.9727c6.7031-0.007812 13.129-2.6719 17.867-7.4102 4.7422-4.7383 7.4062-11.164 7.4141-17.867v-9.9453c-0.03125-6.2109-2.3477-12.191-6.5117-16.797-4.168-4.6055-9.8828-7.5117-16.059-8.168v-13.234h194.17c3.9219 0 7.1055-3.1797 7.1055-7.1055 0-3.9219-3.1836-7.1016-7.1055-7.1016h-6.7383v-241.77c0-3.9219-3.1797-7.1016-7.1055-7.1016-3.9219 0-7.1016 3.1797-7.1016 7.1016v241.76l-360.65 0.003906v-272.26h381.6c3.9219 0 7.1055-3.1797 7.1055-7.1055v-38.359c-0.015625-3.9141-3.1914-7.0781-7.1055-7.0781zm-196.88 366.18c6.1133 0.007812 11.066 4.957 11.074 11.07v9.9453-0.003907c-0.007812 6.1133-4.9609 11.066-11.074 11.074h-9.9727c-6.1094-0.007812-11.062-4.9609-11.066-11.074v-9.9453 0.003906c0.003906-6.1133 4.957-11.062 11.066-11.07zm189.77-327.84h-388.34v-24.152h388.34z"/>
  <path d="m337.4 290.05h-38.59c-3.9258 0-7.1055 3.1797-7.1055 7.1016v35.934l-31.512 0.003907c-3.9219 0-7.1016 3.1797-7.1016 7.1016v95.129h-19.789c-3.9219 0-7.1016 3.1797-7.1016 7.1055 0 3.9219 3.1797 7.1016 7.1016 7.1016h285.4c3.9258 0 7.1055-3.1797 7.1055-7.1016 0-3.9258-3.1797-7.1055-7.1055-7.1055h-19.785v-138.17c0-3.9219-3.1797-7.1016-7.1016-7.1016h-31.516v-15.629c0-3.9219-3.1797-7.1016-7.1016-7.1016h-38.594c-3.9219 0-7.1016 3.1797-7.1016 7.1016v46.012h-31.5c-3.9219 0-7.1016 3.1836-7.1016 7.1055v35.141h-24.395v-65.527c0-3.9219-3.1797-7.1016-7.1055-7.1016zm-45.695 145.27h-24.406v-88.023h24.406zm38.605-65.531v65.531h-24.398v-131.06h24.398zm129.99-65.531h24.395v131.06h-24.395zm-38.605 23.289v-46.012h24.398v153.79h-24.383zm-38.586 42.246v-35.141h24.395v100.67h-24.395zm-14.207 7.1055v58.422h-24.395v-58.426z"/>
 </g>
</svg>
