<?xml version="1.0" encoding="UTF-8"?>
<svg version="1.1" viewBox="165 190 400 400" xmlns="http://www.w3.org/2000/svg">
 <path d="m324.2 302h103.6c5.2852 0 10.172 2.8203 12.816 7.3984 2.6406 4.582 2.6406 10.223 0 14.801-2.6445 4.5781-7.5312 7.3984-12.816 7.3984h-103.6c-5.2852 0-10.172-2.8203-12.816-7.3984s-2.6445-10.219 0-14.801c2.6445-4.5781 7.5312-7.3984 12.816-7.3984zm-48.543 73.996c0 3.9258 1.5586 7.6914 4.3359 10.465 2.7773 2.7773 6.5391 4.3359 10.465 4.3359h171.08c5.2852 0 10.172-2.8203 12.816-7.3984 2.6445-4.582 2.6445-10.223 0-14.801-2.6445-4.5781-7.5312-7.3984-12.816-7.3984h-171.08c-3.9258 0-7.6875 1.5586-10.465 4.332-2.7773 2.7773-4.3359 6.543-4.3359 10.465zm166.94 59.199c0-3.9258-1.5586-7.6914-4.332-10.465-2.7773-2.7773-6.543-4.3359-10.465-4.3359h-103.6c-5.2852 0-10.172 2.8203-12.816 7.4023-2.6445 4.5781-2.6445 10.219 0 14.797s7.5312 7.4023 12.816 7.4023h103.6c3.9219 0 7.6875-1.5625 10.465-4.3359 2.7734-2.7773 4.332-6.5391 4.332-10.465zm-207.19-116.32c3.9258 0 7.6914-1.5586 10.465-4.332 2.7773-2.7773 4.3359-6.543 4.3359-10.465v-39.07c0-3.9258 1.5586-7.6914 4.3359-10.465 2.7734-2.7773 6.5391-4.3359 10.465-4.3359h39.219-0.003906c5.2891 0 10.176-2.8203 12.816-7.3984 2.6445-4.582 2.6445-10.223 0-14.801-2.6406-4.5781-7.5273-7.3984-12.816-7.3984h-39.215c-11.777 0-23.07 4.6758-31.395 13.004-8.3281 8.3242-13.004 19.617-13.004 31.395v39.219-0.003906c0 3.9258 1.5586 7.6914 4.332 10.465 2.7773 2.7773 6.5391 4.3359 10.465 4.3359zm251.59-98.418-39.219 0.003907c-5.2852 0-10.172 2.8203-12.816 7.3984-2.6445 4.5781-2.6445 10.219 0 14.801 2.6445 4.5781 7.5312 7.3984 12.816 7.3984h39.219c3.9258 0 7.6914 1.5586 10.465 4.3359 2.7773 2.7734 4.3359 6.5391 4.3359 10.465v39.219c0 5.2852 2.8203 10.172 7.3984 12.816 4.5781 2.6406 10.223 2.6406 14.801 0 4.5781-2.6445 7.3984-7.5312 7.3984-12.816v-39.07c0-11.777-4.6758-23.07-13.004-31.395-8.3242-8.3281-19.617-13.004-31.395-13.004zm29.598 212.22 0.003906 0.003906c-3.9258 0-7.6914 1.5586-10.465 4.3359-2.7773 2.7734-4.3359 6.5391-4.3359 10.465v39.219-0.003906c0 3.9258-1.5586 7.6914-4.3359 10.465-2.7734 2.7773-6.5391 4.3359-10.465 4.3359h-39.219c-5.2852 0-10.172 2.8203-12.816 7.3984-2.6445 4.582-2.6445 10.223 0 14.801 2.6445 4.5781 7.5312 7.3984 12.816 7.3984h39.219c11.777 0 23.07-4.6758 31.395-13.004 8.3281-8.3242 13.004-19.617 13.004-31.395v-39.07c0-3.9219-1.5586-7.6875-4.3359-10.465-2.7734-2.7734-6.5391-4.332-10.461-4.332zm-212.37 69.117h-39.215c-3.9258 0-7.6914-1.5586-10.465-4.3359-2.7773-2.7734-4.3359-6.5391-4.3359-10.465v-39.219c0-5.2852-2.8203-10.172-7.3984-12.816-4.582-2.6445-10.223-2.6445-14.801 0-4.5781 2.6445-7.3984 7.5312-7.3984 12.816v39.219c0 11.777 4.6758 23.07 13.004 31.395 8.3242 8.3281 19.617 13.004 31.395 13.004h39.219-0.003906c5.2891 0 10.176-2.8203 12.816-7.3984 2.6445-4.5781 2.6445-10.223 0-14.801-2.6406-4.5781-7.5273-7.3984-12.816-7.3984z"/>
</svg>
