<?xml version="1.0" encoding="UTF-8"?>
<svg version="1.1" viewBox="200 140 450 500" xmlns="http://www.w3.org/2000/svg">
 <path d="m529.48 374.66c7.5195-13.023 10.609-28.133 8.8047-43.066-4.2617-35.371-12.934-107.37-17.184-142.67-0.85938-7.1484-5.0312-13.453-11.262-17.051-6.2148-3.5977-13.777-4.0547-20.379-1.2266-32.707 13.969-99.395 42.461-132.16 56.445-13.836 5.918-25.383 16.145-32.898 29.168-22.125 38.344-74.398 128.86-103.09 178.59-12.949 22.422-5.2695 51.086 17.152 64.035 34.957 20.172 88.914 51.34 123.87 71.512 22.422 12.949 51.086 5.2695 64.035-17.152l103.11-178.59zm-12.816-7.3984-103.11 178.59c-8.8633 15.348-28.473 20.602-43.82 11.734-34.957-20.172-88.914-51.34-123.87-71.512-15.348-8.8633-20.602-28.473-11.734-43.82l103.09-178.59c5.918-10.258 15.008-18.309 25.898-22.953 32.766-14 99.453-42.488 132.14-56.445 2.3398-0.99219 4.9883-0.84375 7.1758 0.42969 2.1914 1.2578 3.6719 3.4766 3.9648 5.9922l17.184 142.68c1.4219 11.75-1.0078 23.633-6.9258 33.891zm-237.93 86.516 102.53 59.199c3.5352 2.043 8.0664 0.82812 10.109-2.707 2.043-3.5352 0.82812-8.0664-2.707-10.109l-102.53-59.199c-3.5352-2.043-8.0664-0.82812-10.109 2.707-2.043 3.5352-0.82812 8.0664 2.707 10.109zm29.598-51.266 102.53 59.199c3.5352 2.043 8.0664 0.82812 10.109-2.707 2.043-3.5352 0.82813-8.0664-2.707-10.109l-102.53-59.199c-3.5352-2.043-8.0664-0.82812-10.109 2.707-2.043 3.5352-0.82812 8.0664 2.707 10.109zm29.598-51.266 102.53 59.199c3.5352 2.043 8.0664 0.82812 10.109-2.707s0.82812-8.0664-2.707-10.109l-102.53-59.199c-3.5352-2.043-8.0664-0.82812-10.109 2.707-2.043 3.5352-0.82812 8.0664 2.707 10.109zm134.17-114.02c-17.684-10.195-40.328-4.1289-50.539 13.555-10.211 17.684-4.1445 40.328 13.543 50.539 17.684 10.211 40.328 4.1445 50.539-13.543 10.211-17.684 4.1445-40.344-13.543-50.539v-0.015625zm-7.3984 12.832c10.609 6.1289 14.25 19.711 8.125 30.324-6.1289 10.609-19.711 14.25-30.324 8.125-10.609-6.1289-14.25-19.711-8.125-30.324 6.1289-10.609 19.711-14.25 30.324-8.125z" fill-rule="evenodd"/>
</svg>
